<svg width="316" height="27" viewBox="0 0 316 27" fill="none" xmlns="http://www.w3.org/2000/svg">
<path d="M11.4023 15.6543C11.4844 15.1986 11.4479 14.8112 11.293 14.4922C11.1471 14.1732 10.9284 13.9043 10.6367 13.6855C10.3451 13.4668 10.0124 13.2799 9.63867 13.125C9.26497 12.9701 8.90495 12.8242 8.55859 12.6875C7.84766 12.4141 7.14583 12.0996 6.45312 11.7441C5.76953 11.3887 5.14974 10.9694 4.59375 10.4863C4.03776 10.0033 3.60026 9.43815 3.28125 8.79102C2.97135 8.13477 2.84375 7.36914 2.89844 6.49414C2.96224 5.50065 3.24023 4.64388 3.73242 3.92383C4.23372 3.19466 4.8763 2.59766 5.66016 2.13281C6.44401 1.66797 7.28711 1.33073 8.18945 1.12109C9.10091 0.902344 9.9987 0.802083 10.8828 0.820312C12.1224 0.838542 13.2298 1.09375 14.2051 1.58594C15.1895 2.07812 15.9596 2.78451 16.5156 3.70508C17.0807 4.61654 17.3496 5.71029 17.3223 6.98633H13.0156C13.043 6.43034 12.9701 5.94727 12.7969 5.53711C12.6328 5.12695 12.3639 4.80794 11.9902 4.58008C11.6165 4.35221 11.1426 4.23372 10.5684 4.22461C10.0762 4.20638 9.58854 4.2793 9.10547 4.44336C8.6224 4.60742 8.20768 4.86263 7.86133 5.20898C7.51497 5.54622 7.29167 5.98372 7.19141 6.52148C7.1276 6.92253 7.18685 7.27344 7.36914 7.57422C7.56055 7.86589 7.82031 8.11654 8.14844 8.32617C8.48568 8.52669 8.83659 8.69987 9.20117 8.8457C9.57487 8.99154 9.90755 9.11458 10.1992 9.21484C10.9375 9.4974 11.6484 9.82552 12.332 10.1992C13.0247 10.5638 13.6354 11.0013 14.1641 11.5117C14.7018 12.013 15.112 12.6009 15.3945 13.2754C15.6771 13.9499 15.791 14.7292 15.7363 15.6133C15.6634 16.6341 15.39 17.5046 14.916 18.2246C14.4421 18.9447 13.8359 19.5326 13.0977 19.9883C12.3594 20.444 11.5436 20.7767 10.6504 20.9863C9.76628 21.196 8.86849 21.2962 7.95703 21.2871C6.95443 21.2689 6.01107 21.1139 5.12695 20.8223C4.25195 20.5306 3.48633 20.1022 2.83008 19.5371C2.17383 18.972 1.66341 18.2839 1.29883 17.4727C0.943359 16.6523 0.779297 15.709 0.806641 14.6426L5.1543 14.6562C5.11784 15.1849 5.1543 15.6543 5.26367 16.0645C5.38216 16.4655 5.56445 16.8027 5.81055 17.0762C6.06576 17.3405 6.38932 17.541 6.78125 17.6777C7.18229 17.8145 7.65625 17.8828 8.20312 17.8828C8.6862 17.8919 9.1556 17.819 9.61133 17.6641C10.0762 17.5091 10.4681 17.2676 10.7871 16.9395C11.1152 16.6113 11.3203 16.1829 11.4023 15.6543ZM29.8184 1.09375L26.373 21H22.0254L25.4844 1.09375H29.8184ZM35.6973 1.09375L35.0957 4.55273H19.1133L19.7285 1.09375H35.6973ZM48.3574 1.09375H52.6914L50.4629 14.1504C50.2441 15.6543 49.752 16.944 48.9863 18.0195C48.2207 19.0951 47.2363 19.9154 46.0332 20.4805C44.8392 21.0365 43.4902 21.3053 41.9863 21.2871C40.5736 21.2598 39.3431 20.959 38.2949 20.3848C37.2559 19.8014 36.4766 18.9811 35.957 17.9238C35.4466 16.8665 35.2734 15.6133 35.4375 14.1641L37.666 1.09375H42.0137L39.7988 14.1777C39.7259 14.8249 39.7396 15.4219 39.8398 15.9688C39.9492 16.5156 40.1953 16.9577 40.5781 17.2949C40.9609 17.6322 41.5169 17.8099 42.2461 17.8281C43.0208 17.8555 43.6771 17.7142 44.2148 17.4043C44.7526 17.0944 45.1764 16.6569 45.4863 16.0918C45.8053 15.5267 46.0195 14.8841 46.1289 14.1641L48.3574 1.09375ZM58.6797 21H54.1816L54.8105 17.5547L58.8164 17.582C60.0013 17.582 60.9902 17.2949 61.7832 16.7207C62.5762 16.1465 63.2005 15.3945 63.6562 14.4648C64.112 13.526 64.4173 12.528 64.5723 11.4707L64.6816 10.5547C64.7637 9.90755 64.7956 9.24219 64.7773 8.55859C64.7591 7.86589 64.6452 7.22331 64.4355 6.63086C64.2259 6.03841 63.8887 5.55534 63.4238 5.18164C62.959 4.79883 62.3164 4.59375 61.4961 4.56641L56.957 4.55273L57.5586 1.09375L61.6328 1.10742C62.9635 1.13477 64.1257 1.4082 65.1191 1.92773C66.1217 2.43815 66.9375 3.13542 67.5664 4.01953C68.2044 4.89453 68.651 5.89714 68.9062 7.02734C69.1706 8.14844 69.2298 9.32878 69.084 10.5684L68.9746 11.4844C68.8014 12.8242 68.4277 14.0729 67.8535 15.2305C67.2793 16.388 66.541 17.3997 65.6387 18.2656C64.7363 19.1315 63.6973 19.806 62.5215 20.2891C61.3457 20.7721 60.0651 21.0091 58.6797 21ZM60.1152 1.09375L56.6562 21H52.3223L55.7676 1.09375H60.1152ZM75.7969 1.09375L78.0391 9.92578L83.3574 1.09375H88.252L79.625 14.0137L78.4219 21H74.0059L75.3047 13.5898L71.2305 1.10742L75.7969 1.09375ZM157.227 17.5957L156.762 20.3711C156.579 21.5195 156.178 22.5859 155.559 23.5703C154.948 24.5638 154.187 25.416 153.275 26.127L151.156 25.0605C151.43 24.5592 151.712 24.0762 152.004 23.6113C152.286 23.1556 152.542 22.6816 152.77 22.1895C152.997 21.7064 153.166 21.1777 153.275 20.6035L153.809 17.5957H157.227ZM175.834 14.0957L170.734 14.082L171.336 10.623L175.984 10.6367C176.622 10.6367 177.206 10.5228 177.734 10.2949C178.263 10.0671 178.696 9.73438 179.033 9.29688C179.38 8.85938 179.598 8.3125 179.689 7.65625C179.781 7.10938 179.758 6.60807 179.621 6.15234C179.493 5.69661 179.252 5.32747 178.896 5.04492C178.541 4.75326 178.067 4.59375 177.475 4.56641L173.975 4.55273L171.117 21H166.783L170.229 1.09375L177.611 1.10742C178.896 1.13477 180.045 1.41276 181.057 1.94141C182.077 2.47005 182.861 3.21289 183.408 4.16992C183.964 5.12695 184.188 6.27995 184.078 7.62891C183.96 9.09635 183.499 10.3086 182.697 11.2656C181.904 12.2227 180.902 12.9336 179.689 13.3984C178.477 13.8633 177.192 14.0957 175.834 14.0957ZM192.842 5.09961L185.172 21H180.373L190.982 1.09375H194.031L192.842 5.09961ZM194.264 21L192.035 4.66211L192.172 1.09375H195.043L198.762 21H194.264ZM195.303 13.5898L194.688 17.0352H184.598L185.213 13.5898H195.303ZM204.969 1.09375L207.211 9.92578L212.529 1.09375H217.424L208.797 14.0137L207.594 21H203.178L204.477 13.5898L200.402 1.10742L204.969 1.09375Z" fill="white"/>
<path d="M112.574 1.09375L109.115 21H104.904L99.7773 7.9707L97.5078 21H93.1738L96.6191 1.09375H100.857L105.984 14.1367L108.24 1.09375H112.574ZM130.211 10.541L130.102 11.416C129.919 12.7103 129.573 13.9544 129.062 15.1484C128.561 16.3333 127.896 17.3906 127.066 18.3203C126.246 19.25 125.271 19.9837 124.141 20.5215C123.02 21.0501 121.753 21.3008 120.34 21.2734C118.982 21.2461 117.829 20.9544 116.881 20.3984C115.933 19.8424 115.176 19.0996 114.611 18.1699C114.055 17.2402 113.682 16.2012 113.49 15.0527C113.299 13.8952 113.276 12.7103 113.422 11.498L113.531 10.6094C113.714 9.33333 114.06 8.10286 114.57 6.91797C115.09 5.73307 115.76 4.67578 116.58 3.74609C117.41 2.81641 118.389 2.0918 119.52 1.57227C120.65 1.04362 121.917 0.792969 123.32 0.820312C124.669 0.838542 125.813 1.12565 126.752 1.68164C127.7 2.23763 128.452 2.98047 129.008 3.91016C129.564 4.83984 129.938 5.87891 130.129 7.02734C130.329 8.17578 130.357 9.34701 130.211 10.541ZM125.699 11.498L125.822 10.5684C125.895 9.99414 125.936 9.35612 125.945 8.6543C125.954 7.95247 125.882 7.27799 125.727 6.63086C125.572 5.98372 125.285 5.44596 124.865 5.01758C124.455 4.58919 123.854 4.35677 123.061 4.32031C122.204 4.28385 121.47 4.45703 120.859 4.83984C120.258 5.21354 119.761 5.7194 119.369 6.35742C118.977 6.98633 118.667 7.67448 118.439 8.42188C118.212 9.16927 118.048 9.88932 117.947 10.582L117.824 11.5117C117.76 12.0768 117.719 12.7148 117.701 13.4258C117.692 14.1276 117.76 14.8066 117.906 15.4629C118.061 16.1191 118.348 16.666 118.768 17.1035C119.187 17.5319 119.793 17.7598 120.586 17.7871C121.434 17.8236 122.158 17.6504 122.76 17.2676C123.37 16.8757 123.876 16.3652 124.277 15.7363C124.678 15.0983 124.993 14.4056 125.221 13.6582C125.449 12.9108 125.608 12.1908 125.699 11.498ZM136.186 18.3066L142.68 1.09375H144.854L145.496 3.44531L138.674 21H136.254L136.186 18.3066ZM137.375 1.09375L137.867 18.7852L137.047 21H134.23L133.15 1.09375H137.375ZM145.865 18.3066L151.703 1.09375H156.092L148.777 21H146.057L145.865 18.3066ZM146.357 1.09375L147.547 18.8125L146.822 21H144.361L142.953 3.0625L144.061 1.09375H146.357ZM241.746 1.09375L238.287 21H234.076L228.949 7.9707L226.68 21H222.346L225.791 1.09375H230.029L235.156 14.1367L237.412 1.09375H241.746ZM255.24 17.5547L254.639 21H244.33L244.932 17.5547H255.24ZM249.279 1.09375L245.82 21H241.486L244.932 1.09375H249.279ZM255.363 9.10547L254.789 12.4414H245.807L246.395 9.10547H255.363ZM258.098 1.09375L257.496 4.55273H247.174L247.789 1.09375H258.098ZM264.729 16.3926L271.359 1.09375H276.336L266.602 21H263.334L264.729 16.3926ZM263.184 1.09375L265.07 16.7891L265.057 21H261.953L258.48 1.09375H263.184ZM288.354 17.5547L287.752 21H277.443L278.045 17.5547H288.354ZM282.393 1.09375L278.934 21H274.6L278.045 1.09375H282.393ZM288.477 9.10547L287.902 12.4414H278.92L279.508 9.10547H288.477ZM291.211 1.09375L290.609 4.55273H280.287L280.902 1.09375H291.211ZM293.303 1.09375L300.494 1.10742C301.706 1.12565 302.814 1.34896 303.816 1.77734C304.828 2.19661 305.617 2.83464 306.182 3.69141C306.747 4.54818 306.984 5.64648 306.893 6.98633C306.811 8.07096 306.555 8.99154 306.127 9.74805C305.708 10.4954 305.143 11.1335 304.432 11.6621C303.721 12.1816 302.891 12.6374 301.943 13.0293L300.398 13.8086H293.85L294.438 10.3496L298.922 10.377C299.551 10.3678 300.12 10.2448 300.631 10.0078C301.141 9.77083 301.561 9.43359 301.889 8.99609C302.217 8.54948 302.422 8.0026 302.504 7.35547C302.586 6.81771 302.559 6.34375 302.422 5.93359C302.294 5.52344 302.053 5.19987 301.697 4.96289C301.351 4.72591 300.904 4.59375 300.357 4.56641L297.049 4.55273L294.191 21H289.857L293.303 1.09375ZM300.645 21L297.842 12.1543L302.23 12.1406L305.279 20.7812L305.266 21H300.645ZM315.328 1.09375L312.457 14.8066H309.012L310.885 1.09375H315.328ZM307.658 19.1406C307.649 18.4753 307.872 17.9329 308.328 17.5137C308.793 17.0944 309.344 16.8802 309.982 16.8711C310.602 16.862 311.14 17.0534 311.596 17.4453C312.051 17.8372 312.284 18.3522 312.293 18.9902C312.302 19.6465 312.074 20.1888 311.609 20.6172C311.154 21.0365 310.607 21.2461 309.969 21.2461C309.349 21.2552 308.811 21.0684 308.355 20.6855C307.909 20.2936 307.676 19.7786 307.658 19.1406Z" fill="#E9E62E"/>
</svg>
